<svg width="64" height="64" viewBox="0 0 64 64" fill="none" xmlns="http://www.w3.org/2000/svg">
  <rect width="64" height="64" rx="16" fill="#000000" />
  <path
    d="M43.5 18.5H25.5C19.1487 18.5 14 23.6487 14 30V34C14 40.3513 19.1487 45.5 25.5 45.5H32.5V38.5H26C22.4101 38.5 19.5 35.5899 19.5 32C19.5 28.4101 22.4101 25.5 26 25.5H43.5V18.5Z"
    fill="#F5E6D3"
  />
  <path
    d="M40.5 25.5H31.5V32.5H38.5C42.0899 32.5 45 35.4101 45 39C45 42.5899 42.0899 45.5 38.5 45.5H20.5V52.5H38.5C44.8513 52.5 50 47.3513 50 41V37C50 30.6487 44.8513 25.5 38.5 25.5H40.5Z"
    fill="#C8B6FF"
  />
</svg>
