<svg xmlns="http://www.w3.org/2000/svg" viewBox="0 0 800 800" role="img" aria-label="Diamond Hands persona">
  <rect width="800" height="800" rx="64" fill="#fff8ea"/>
  <circle cx="618" cy="156" r="152" fill="#dfefff"/>
  <circle cx="182" cy="630" r="190" fill="#edf8e9"/>
  <path d="M400 148 594 326 400 650 206 326Z" fill="#fffdf7" stroke="#161511" stroke-width="18" stroke-linejoin="round"/>
  <path d="M206 326h388M400 148 316 326l84 324 84-324Z" fill="none" stroke="#161511" stroke-width="12" stroke-linejoin="round" opacity=".82"/>
  <path d="M282 420c-48 16-82 55-82 100 0 68 78 124 174 124h52c96 0 174-56 174-124 0-45-34-84-82-100" fill="none" stroke="#6b5dff" stroke-width="26" stroke-linecap="round"/>
  <path d="M250 262c24-34 63-56 108-56h84c45 0 84 22 108 56" fill="none" stroke="#ff8709" stroke-width="22" stroke-linecap="round"/>
</svg>
