<svg width="200" height="200" viewBox="0 0 200 200" fill="none" xmlns="http://www.w3.org/2000/svg">
<mask id="path-1-inside-1_3_21" fill="white">
<path d="M100 0C155.228 0 200 44.7715 200 100C200 155.228 155.228 200 100 200C44.7715 200 0 155.228 0 100C0 44.7715 44.7715 0 100 0ZM100 40C66.8629 40 40 66.8629 40 100C40 133.137 66.8629 160 100 160C133.137 160 160 133.137 160 100C160 66.8629 133.137 40 100 40Z"/>
</mask>
<path d="M100 0C155.228 0 200 44.7715 200 100C200 155.228 155.228 200 100 200C44.7715 200 0 155.228 0 100C0 44.7715 44.7715 0 100 0ZM100 40C66.8629 40 40 66.8629 40 100C40 133.137 66.8629 160 100 160C133.137 160 160 133.137 160 100C160 66.8629 133.137 40 100 40Z" fill="black"/>
<path d="M100 0V1C154.676 1 199 45.3238 199 100H200H201C201 44.2192 155.781 -1 100 -1V0ZM200 100H199C199 154.676 154.676 199 100 199V200V201C155.781 201 201 155.781 201 100H200ZM100 200V199C45.3238 199 1 154.676 1 100H0H-1C-1 155.781 44.2192 201 100 201V200ZM0 100H1C1 45.3238 45.3238 1 100 1V0V-1C44.2192 -1 -1 44.2192 -1 100H0ZM100 40V39C66.3106 39 39 66.3106 39 100H40H41C41 67.4152 67.4152 41 100 41V40ZM40 100H39C39 133.689 66.3106 161 100 161V160V159C67.4152 159 41 132.585 41 100H40ZM100 160V161C133.689 161 161 133.689 161 100H160H159C159 132.585 132.585 159 100 159V160ZM160 100H161C161 66.3106 133.689 39 100 39V40V41C132.585 41 159 67.4152 159 100H160Z" fill="black" mask="url(#path-1-inside-1_3_21)"/>
</svg>
