<svg width="491" height="93" viewBox="0 0 491 93" fill="none" xmlns="http://www.w3.org/2000/svg">
<mask id="path-1-outside-1_3_33" maskUnits="userSpaceOnUse" x="0" y="0" width="491" height="93" fill="black">
<rect fill="white" width="491" height="93"/>
<path d="M4 46.5C4 34.1 14 24 26.5 24C38.9 24 49 34.1 49 46.5C49 58.9 38.9 69 26.5 69C14 69 4 58.9 4 46.5ZM26.5 64C36.1 64 44 56.2 44 46.5C44 36.9 36.1 29 26.5 29C16.8 29 9 36.9 9 46.5C9 56.2 16.8 64 26.5 64ZM6.1 75C5.6 73.7 5.8 72.3 7.8 71.7C9 71.4 10.3 72 10.8 73.1C13.5 79.9 20 84 26.9 84C34 84 40.5 79.7 43.2 73.1C43.6 72 44.9 71.3 46.4 71.8C47.7 72.2 48.3 73.7 47.8 75C44.3 83.5 36.2 89 27 89C18.1 89 9.5 83.5 6.1 75ZM148.441 24C149.741 24 150.941 25.1 150.941 26.5C150.941 27.9 149.741 29 148.441 29H143.441C133.741 29 125.941 36.9 125.941 46.5V66.5C125.941 67.9 124.741 69 123.441 69C122.041 69 120.941 67.9 120.941 66.5V46.5C120.941 34.1 130.941 24 143.441 24H148.441ZM256.095 65.1C252.295 67.6 247.995 69 243.395 69C230.995 69 220.895 58.9 220.895 46.5C220.895 34.1 230.995 24 243.395 24C255.895 24 265.895 34.1 265.895 46.5V66.5C265.895 67.9 264.795 69 263.395 69C262.095 69 260.895 67.9 260.895 66.5V46.5C260.895 36.9 253.095 29 243.395 29C233.795 29 225.895 36.9 225.895 46.5C225.895 56.2 233.795 64 243.395 64C246.995 64 250.395 62.9 253.295 60.9C253.695 60.6 254.195 60.5 254.695 60.5C256.095 60.5 257.195 61.6 257.195 63C257.195 63.8 256.795 64.6 256.095 65.1ZM380.563 25.3C380.963 24.5 381.863 24 382.663 24C384.063 24 385.263 25.2 385.263 26.6C385.263 26.9 385.163 27.3 384.963 27.7L364.463 66.4C363.563 68.1 361.963 69 360.063 69C358.263 69 356.563 68.1 355.663 66.4L335.163 27.7C334.963 27.3 334.863 26.9 334.863 26.5C334.863 25.6 335.363 24.8 336.163 24.3C336.563 24.1 336.963 24 337.363 24C338.263 24 339.063 24.5 339.563 25.3L360.063 64L380.563 25.3ZM455.766 66.5V26.5C455.766 25.1 456.866 24 458.266 24C459.566 24 460.766 25.1 460.766 26.5V66.5C460.766 67.9 459.566 69 458.266 69C456.866 69 455.766 67.9 455.766 66.5ZM454.266 8C454.266 5.8 456.066 4 458.266 4C460.566 4 462.266 5.8 462.266 8C462.266 10.2 460.566 12 458.266 12C456.066 12 454.266 10.2 454.266 8ZM479.789 66.5V26.5C479.789 25.1 480.889 24 482.289 24C483.589 24 484.789 25.1 484.789 26.5V66.5C484.789 67.9 483.589 69 482.289 69C480.889 69 479.789 67.9 479.789 66.5ZM478.289 8C478.289 5.8 480.089 4 482.289 4C484.589 4 486.289 5.8 486.289 8C486.289 10.2 484.589 12 482.289 12C480.089 12 478.289 10.2 478.289 8Z"/>
</mask>
<path d="M4 46.5C4 34.1 14 24 26.5 24C38.9 24 49 34.1 49 46.5C49 58.9 38.9 69 26.5 69C14 69 4 58.9 4 46.5ZM26.5 64C36.1 64 44 56.2 44 46.5C44 36.9 36.1 29 26.5 29C16.8 29 9 36.9 9 46.5C9 56.2 16.8 64 26.5 64ZM6.1 75C5.6 73.7 5.8 72.3 7.8 71.7C9 71.4 10.3 72 10.8 73.1C13.5 79.9 20 84 26.9 84C34 84 40.5 79.7 43.2 73.1C43.6 72 44.9 71.3 46.4 71.8C47.7 72.2 48.3 73.7 47.8 75C44.3 83.5 36.2 89 27 89C18.1 89 9.5 83.5 6.1 75ZM148.441 24C149.741 24 150.941 25.1 150.941 26.5C150.941 27.9 149.741 29 148.441 29H143.441C133.741 29 125.941 36.9 125.941 46.5V66.5C125.941 67.9 124.741 69 123.441 69C122.041 69 120.941 67.9 120.941 66.5V46.5C120.941 34.1 130.941 24 143.441 24H148.441ZM256.095 65.1C252.295 67.6 247.995 69 243.395 69C230.995 69 220.895 58.9 220.895 46.5C220.895 34.1 230.995 24 243.395 24C255.895 24 265.895 34.1 265.895 46.5V66.5C265.895 67.9 264.795 69 263.395 69C262.095 69 260.895 67.9 260.895 66.5V46.5C260.895 36.9 253.095 29 243.395 29C233.795 29 225.895 36.9 225.895 46.5C225.895 56.2 233.795 64 243.395 64C246.995 64 250.395 62.9 253.295 60.9C253.695 60.6 254.195 60.5 254.695 60.5C256.095 60.5 257.195 61.6 257.195 63C257.195 63.8 256.795 64.6 256.095 65.1ZM380.563 25.3C380.963 24.5 381.863 24 382.663 24C384.063 24 385.263 25.2 385.263 26.6C385.263 26.9 385.163 27.3 384.963 27.7L364.463 66.4C363.563 68.1 361.963 69 360.063 69C358.263 69 356.563 68.1 355.663 66.4L335.163 27.7C334.963 27.3 334.863 26.9 334.863 26.5C334.863 25.6 335.363 24.8 336.163 24.3C336.563 24.1 336.963 24 337.363 24C338.263 24 339.063 24.5 339.563 25.3L360.063 64L380.563 25.3ZM455.766 66.5V26.5C455.766 25.1 456.866 24 458.266 24C459.566 24 460.766 25.1 460.766 26.5V66.5C460.766 67.9 459.566 69 458.266 69C456.866 69 455.766 67.9 455.766 66.5ZM454.266 8C454.266 5.8 456.066 4 458.266 4C460.566 4 462.266 5.8 462.266 8C462.266 10.2 460.566 12 458.266 12C456.066 12 454.266 10.2 454.266 8ZM479.789 66.5V26.5C479.789 25.1 480.889 24 482.289 24C483.589 24 484.789 25.1 484.789 26.5V66.5C484.789 67.9 483.589 69 482.289 69C480.889 69 479.789 67.9 479.789 66.5ZM478.289 8C478.289 5.8 480.089 4 482.289 4C484.589 4 486.289 5.8 486.289 8C486.289 10.2 484.589 12 482.289 12C480.089 12 478.289 10.2 478.289 8Z" fill="black"/>
<path d="M6.1 75L2.36662 76.4359L2.37619 76.4608L2.38609 76.4856L6.1 75ZM7.8 71.7L6.82986 67.8194L6.73966 67.842L6.65061 67.8687L7.8 71.7ZM10.8 73.1L14.5177 71.6239L14.4817 71.5334L14.4415 71.4448L10.8 73.1ZM43.2 73.1L46.9022 74.6145L46.9321 74.5413L46.9592 74.467L43.2 73.1ZM46.4 71.8L45.1351 75.5947L45.1792 75.6094L45.2237 75.6231L46.4 71.8ZM47.8 75L51.4987 76.523L51.5166 76.4797L51.5334 76.4359L47.8 75ZM4 46.5H8C8 36.2975 16.2207 28 26.5 28V24V20C11.7793 20 1.19209e-07 31.9025 1.19209e-07 46.5H4ZM26.5 24V28C36.6909 28 45 36.3091 45 46.5H49H53C53 31.8909 41.1091 20 26.5 20V24ZM49 46.5H45C45 56.6909 36.6909 65 26.5 65V69V73C41.1091 73 53 61.1091 53 46.5H49ZM26.5 69V65C16.2207 65 8 56.7025 8 46.5H4H1.19209e-07C1.19209e-07 61.0975 11.7793 73 26.5 73V69ZM26.5 64V68C38.2943 68 48 58.424 48 46.5H44H40C40 53.976 33.9058 60 26.5 60V64ZM44 46.5H48C48 34.6909 38.3091 25 26.5 25V29V33C33.8909 33 40 39.1091 40 46.5H44ZM26.5 29V25C14.576 25 5 34.7057 5 46.5H9H13C13 39.0942 19.024 33 26.5 33V29ZM9 46.5H5C5 58.4091 14.5909 68 26.5 68V64V60C19.0091 60 13 53.9909 13 46.5H9ZM6.1 75L9.83338 73.5641C9.78762 73.4451 10.0025 73.8903 9.72094 74.5867C9.5737 74.9509 9.3467 75.2257 9.13327 75.398C8.9396 75.5544 8.8338 75.566 8.94939 75.5313L7.8 71.7L6.65061 67.8687C4.84737 68.4097 3.12068 69.5683 2.30406 71.5883C1.54753 73.4597 1.91238 75.2549 2.36662 76.4359L6.1 75ZM7.8 71.7L8.77014 75.5806C8.43199 75.6651 8.12108 75.6161 7.87558 75.5019C7.62919 75.3873 7.33969 75.1538 7.15854 74.7552L10.8 73.1L14.4415 71.4448C13.1021 68.4982 9.80593 67.0754 6.82986 67.8194L7.8 71.7ZM10.8 73.1L7.08234 74.5761C10.412 82.9619 18.4286 88 26.9 88V84V80C21.5714 80 16.588 76.8381 14.5177 71.6239L10.8 73.1ZM26.9 84V88C35.6034 88 43.5793 82.737 46.9022 74.6145L43.2 73.1L39.4978 71.5855C37.4207 76.663 32.3966 80 26.9 80V84ZM43.2 73.1L46.9592 74.467C46.7716 74.9828 46.3978 75.3338 46.0121 75.5052C45.6039 75.6867 45.2692 75.6394 45.1351 75.5947L46.4 71.8L47.6649 68.0053C44.3381 66.8963 40.6612 68.3769 39.4408 71.733L43.2 73.1ZM46.4 71.8L45.2237 75.6231C44.6342 75.4417 44.2575 75.012 44.0944 74.6287C43.9407 74.2677 43.9408 73.8911 44.0666 73.5641L47.8 75L51.5334 76.4359C52.721 73.3481 51.4574 69.1711 47.5763 67.9769L46.4 71.8ZM47.8 75L44.1013 73.477C41.2099 80.4989 34.5568 85 27 85V89V93C37.8432 93 47.3901 86.5011 51.4987 76.523L47.8 75ZM27 89V85C19.6638 85 12.5802 80.4302 9.81391 73.5144L6.1 75L2.38609 76.4856C6.4198 86.5698 16.5362 93 27 93V89ZM148.441 24V28C147.967 28 147.613 27.809 147.389 27.5919C147.151 27.3598 146.941 26.9776 146.941 26.5H150.941H154.941C154.941 22.7883 151.847 20 148.441 20V24ZM150.941 26.5H146.941C146.941 26.0224 147.151 25.6402 147.389 25.4081C147.613 25.191 147.967 25 148.441 25V29V33C151.847 33 154.941 30.2117 154.941 26.5H150.941ZM148.441 29V25H143.441V29V33H148.441V29ZM143.441 29V25C131.517 25 121.941 34.7057 121.941 46.5H125.941H129.941C129.941 39.0942 135.965 33 143.441 33V29ZM125.941 46.5H121.941V66.5H125.941H129.941V46.5H125.941ZM125.941 66.5H121.941C121.941 66.0224 122.151 65.6402 122.389 65.4081C122.613 65.191 122.967 65 123.441 65V69V73C126.847 73 129.941 70.2117 129.941 66.5H125.941ZM123.441 69V65C124.251 65 124.941 65.6909 124.941 66.5H120.941H116.941C116.941 70.1091 119.832 73 123.441 73V69ZM120.941 66.5H124.941V46.5H120.941H116.941V66.5H120.941ZM120.941 46.5H124.941C124.941 36.2975 133.162 28 143.441 28V24V20C128.721 20 116.941 31.9025 116.941 46.5H120.941ZM143.441 24V28H148.441V24V20H143.441V24ZM256.095 65.1L258.293 68.4417L258.357 68.3995L258.419 68.3549L256.095 65.1ZM253.295 60.9L255.565 64.1928L255.631 64.1477L255.695 64.1L253.295 60.9ZM256.095 65.1L253.896 61.7583C250.695 63.864 247.152 65 243.395 65V69V73C248.837 73 253.894 71.336 258.293 68.4417L256.095 65.1ZM243.395 69V65C233.204 65 224.895 56.6909 224.895 46.5H220.895H216.895C216.895 61.1091 228.785 73 243.395 73V69ZM220.895 46.5H224.895C224.895 36.3091 233.204 28 243.395 28V24V20C228.785 20 216.895 31.8909 216.895 46.5H220.895ZM243.395 24V28C253.674 28 261.895 36.2975 261.895 46.5H265.895H269.895C269.895 31.9025 258.115 20 243.395 20V24ZM265.895 46.5H261.895V66.5H265.895H269.895V46.5H265.895ZM265.895 66.5H261.895C261.895 65.6909 262.585 65 263.395 65V69V73C267.004 73 269.895 70.1091 269.895 66.5H265.895ZM263.395 69V65C263.869 65 264.223 65.191 264.446 65.4081C264.685 65.6402 264.895 66.0224 264.895 66.5H260.895H256.895C256.895 70.2117 259.989 73 263.395 73V69ZM260.895 66.5H264.895V46.5H260.895H256.895V66.5H260.895ZM260.895 46.5H264.895C264.895 34.7057 255.319 25 243.395 25V29V33C250.871 33 256.895 39.0942 256.895 46.5H260.895ZM243.395 29V25C231.585 25 221.895 34.6909 221.895 46.5H225.895H229.895C229.895 39.1091 236.004 33 243.395 33V29ZM225.895 46.5H221.895C221.895 58.424 231.6 68 243.395 68V64V60C235.989 60 229.895 53.976 229.895 46.5H225.895ZM243.395 64V68C247.828 68 252.016 66.6406 255.565 64.1928L253.295 60.9L251.024 57.6071C248.773 59.1594 246.161 60 243.395 60V64ZM253.295 60.9L255.695 64.1C255.417 64.3079 255.153 64.4089 254.975 64.4558C254.806 64.5004 254.701 64.5 254.695 64.5V60.5V56.5C253.726 56.5 252.248 56.6845 250.895 57.7L253.295 60.9ZM254.695 60.5V64.5C253.885 64.5 253.195 63.8091 253.195 63H257.195H261.195C261.195 59.3909 258.304 56.5 254.695 56.5V60.5ZM257.195 63H253.195C253.195 62.4958 253.429 62.0887 253.77 61.8451L256.095 65.1L258.419 68.3549C260.161 67.1113 261.195 65.1042 261.195 63H257.195ZM380.563 25.3L384.098 27.1724L384.12 27.1309L384.141 27.0889L380.563 25.3ZM384.963 27.7L388.498 29.5724L388.52 29.5309L388.541 29.4888L384.963 27.7ZM364.463 66.4L360.929 64.5276L360.928 64.5285L364.463 66.4ZM355.663 66.4L359.198 64.5285L359.198 64.5276L355.663 66.4ZM335.163 27.7L331.586 29.4888L331.607 29.5309L331.629 29.5724L335.163 27.7ZM336.163 24.3L334.374 20.7223L334.204 20.8073L334.043 20.908L336.163 24.3ZM339.563 25.3L343.098 23.4276L343.031 23.3013L342.955 23.18L339.563 25.3ZM360.063 64L356.529 65.8724L360.063 72.5452L363.598 65.8724L360.063 64ZM380.563 25.3L384.141 27.0889C383.957 27.4577 383.708 27.6678 383.521 27.78C383.344 27.8866 383.065 28 382.663 28V24V20C380.432 20 378.1 21.283 376.986 23.5111L380.563 25.3ZM382.663 24V28C382.206 28 381.864 27.8075 381.66 27.6034C381.456 27.3993 381.263 27.0573 381.263 26.6H385.263H389.263C389.263 22.9909 386.272 20 382.663 20V24ZM385.263 26.6H381.263C381.263 26.3301 381.304 26.1531 381.323 26.0819C381.346 25.998 381.369 25.9445 381.386 25.9112L384.963 27.7L388.541 29.4888C388.944 28.683 389.263 27.669 389.263 26.6H385.263ZM384.963 27.7L381.429 25.8276L360.929 64.5276L364.463 66.4L367.998 68.2724L388.498 29.5724L384.963 27.7ZM364.463 66.4L360.928 64.5285C360.81 64.7525 360.697 64.8392 360.623 64.8824C360.542 64.9297 360.374 65 360.063 65V69V73C363.358 73 366.365 71.3565 367.998 68.2716L364.463 66.4ZM360.063 69V65C359.828 65 359.645 64.9416 359.516 64.868C359.398 64.8002 359.289 64.6994 359.198 64.5285L355.663 66.4L352.128 68.2716C353.782 71.3947 356.915 73 360.063 73V69ZM355.663 66.4L359.198 64.5276L338.698 25.8276L335.163 27.7L331.629 29.5724L352.129 68.2724L355.663 66.4ZM335.163 27.7L338.741 25.9111C338.786 26.0003 338.863 26.2089 338.863 26.5H334.863H330.863C330.863 27.5911 331.141 28.5997 331.586 29.4888L335.163 27.7ZM334.863 26.5H338.863C338.863 27.1819 338.47 27.5754 338.283 27.692L336.163 24.3L334.043 20.908C332.257 22.0246 330.863 24.0181 330.863 26.5H334.863ZM336.163 24.3L337.952 27.8777C337.863 27.9223 337.654 28 337.363 28V24V20C336.272 20 335.264 20.2777 334.374 20.7223L336.163 24.3ZM337.363 24V28C336.681 28 336.288 27.6066 336.171 27.42L339.563 25.3L342.955 23.18C341.839 21.3934 339.845 20 337.363 20V24ZM339.563 25.3L336.029 27.1724L356.529 65.8724L360.063 64L363.598 62.1276L343.098 23.4276L339.563 25.3ZM360.063 64L363.598 65.8724L384.098 27.1724L380.563 25.3L377.029 23.4276L356.529 62.1276L360.063 64ZM455.766 66.5H459.766V26.5H455.766H451.766V66.5H455.766ZM455.766 26.5H459.766C459.766 27.3091 459.075 28 458.266 28V24V20C454.656 20 451.766 22.8909 451.766 26.5H455.766ZM458.266 24V28C457.791 28 457.437 27.809 457.214 27.5919C456.975 27.3598 456.766 26.9776 456.766 26.5H460.766H464.766C464.766 22.7883 461.671 20 458.266 20V24ZM460.766 26.5H456.766V66.5H460.766H464.766V26.5H460.766ZM460.766 66.5H456.766C456.766 66.0224 456.975 65.6402 457.214 65.4081C457.437 65.191 457.791 65 458.266 65V69V73C461.671 73 464.766 70.2117 464.766 66.5H460.766ZM458.266 69V65C459.075 65 459.766 65.6909 459.766 66.5H455.766H451.766C451.766 70.1091 454.656 73 458.266 73V69ZM454.266 8H458.266C458.266 7.99841 458.266 8.00005 458.265 8.00359C458.264 8.00688 458.263 8.00947 458.263 8.01093C458.262 8.01221 458.262 8.01183 458.263 8.01016C458.265 8.00841 458.266 8.006 458.269 8.00342C458.272 8.00084 458.274 7.99895 458.276 7.99776C458.277 7.99663 458.278 7.99662 458.277 7.99716C458.275 7.99778 458.273 7.99868 458.269 7.99936C458.266 8.00009 458.264 8 458.266 8V4V0C453.856 0 450.266 3.59086 450.266 8H454.266ZM458.266 4V8C458.292 8 458.306 8.00246 458.311 8.00341C458.315 8.00438 458.315 8.00465 458.31 8.00261C458.305 8.00063 458.299 7.99746 458.292 7.99297C458.286 7.98854 458.28 7.98365 458.275 7.97872C458.265 7.96861 458.262 7.96082 458.261 7.95952C458.261 7.95898 458.262 7.96115 458.263 7.96675C458.264 7.97223 458.266 7.983 458.266 8H462.266H466.266C466.266 3.65673 462.84 0 458.266 0V4ZM462.266 8H458.266C458.266 8.017 458.264 8.02777 458.263 8.03325C458.262 8.03885 458.261 8.04101 458.261 8.04048C458.262 8.03917 458.265 8.03139 458.275 8.02127C458.28 8.01634 458.286 8.01145 458.292 8.00702C458.299 8.00253 458.305 7.99936 458.31 7.99738C458.315 7.99534 458.315 7.99561 458.311 7.99659C458.306 7.99754 458.292 8 458.266 8V12V16C462.84 16 466.266 12.3433 466.266 8H462.266ZM458.266 12V8C458.264 8 458.266 7.9999 458.269 8.00063C458.273 8.0013 458.275 8.00221 458.277 8.00283C458.278 8.00337 458.277 8.00336 458.276 8.00223C458.274 8.00104 458.272 7.99915 458.269 7.99657C458.266 7.99399 458.265 7.99158 458.263 7.98983C458.262 7.98816 458.262 7.98779 458.263 7.98907C458.263 7.99052 458.264 7.99311 458.265 7.9964C458.266 7.99995 458.266 8.00159 458.266 8H454.266H450.266C450.266 12.4091 453.857 16 458.266 16V12ZM479.789 66.5H483.789V26.5H479.789H475.789V66.5H479.789ZM479.789 26.5H483.789C483.789 27.3091 483.098 28 482.289 28V24V20C478.68 20 475.789 22.8909 475.789 26.5H479.789ZM482.289 24V28C481.815 28 481.46 27.809 481.237 27.5919C480.999 27.3598 480.789 26.9776 480.789 26.5H484.789H488.789C488.789 22.7883 485.694 20 482.289 20V24ZM484.789 26.5H480.789V66.5H484.789H488.789V26.5H484.789ZM484.789 66.5H480.789C480.789 66.0224 480.999 65.6402 481.237 65.4081C481.46 65.191 481.815 65 482.289 65V69V73C485.694 73 488.789 70.2117 488.789 66.5H484.789ZM482.289 69V65C483.098 65 483.789 65.6909 483.789 66.5H479.789H475.789C475.789 70.1091 478.68 73 482.289 73V69ZM478.289 8H482.289C482.289 7.99841 482.289 8.00005 482.288 8.00359C482.288 8.00688 482.287 8.00947 482.286 8.01093C482.286 8.01221 482.286 8.01183 482.287 8.01016C482.288 8.00841 482.29 8.006 482.292 8.00342C482.295 8.00084 482.297 7.99895 482.299 7.99776C482.301 7.99663 482.301 7.99662 482.3 7.99716C482.299 7.99778 482.296 7.99868 482.293 7.99936C482.289 8.00009 482.287 8 482.289 8V4V0C477.88 0 474.289 3.59086 474.289 8H478.289ZM482.289 4V8C482.315 8 482.329 8.00246 482.334 8.00341C482.339 8.00438 482.338 8.00465 482.333 8.00261C482.329 8.00063 482.322 7.99746 482.316 7.99297C482.309 7.98854 482.303 7.98365 482.299 7.97872C482.289 7.96861 482.285 7.96082 482.285 7.95952C482.284 7.95898 482.285 7.96115 482.286 7.96675C482.287 7.97223 482.289 7.983 482.289 8H486.289H490.289C490.289 3.65673 486.863 0 482.289 0V4ZM486.289 8H482.289C482.289 8.017 482.287 8.02777 482.286 8.03325C482.285 8.03885 482.284 8.04101 482.285 8.04048C482.285 8.03917 482.289 8.03139 482.299 8.02127C482.303 8.01634 482.309 8.01145 482.316 8.00702C482.322 8.00253 482.329 7.99936 482.333 7.99738C482.338 7.99534 482.339 7.99561 482.334 7.99659C482.329 7.99754 482.315 8 482.289 8V12V16C486.863 16 490.289 12.3433 490.289 8H486.289ZM482.289 12V8C482.287 8 482.289 7.9999 482.293 8.00063C482.296 8.0013 482.299 8.00221 482.3 8.00283C482.301 8.00337 482.301 8.00336 482.299 8.00223C482.297 8.00104 482.295 7.99915 482.292 7.99657C482.29 7.99399 482.288 7.99158 482.287 7.98983C482.286 7.98816 482.286 7.98779 482.286 7.98907C482.287 7.99052 482.288 7.99311 482.288 7.9964C482.289 7.99995 482.289 8.00159 482.289 8H478.289H474.289C474.289 12.4091 477.88 16 482.289 16V12Z" fill="black" mask="url(#path-1-outside-1_3_33)"/>
</svg>
