<svg width="456" height="93" viewBox="0 0 456 93" fill="none" xmlns="http://www.w3.org/2000/svg">
<g id="symbol" transform="translate(0 10) scale(0.267399)">
<mask id="logo-wordmark-symbol-ring-mask" fill="white">
<path d="M103.005 0C158.233 0 203.005 44.7715 203.005 100C203.005 155.228 158.233 200 103.005 200C47.7765 200 3.00497 155.228 3.00497 100C3.00497 44.7715 47.7765 0 103.005 0ZM103.005 40C69.8679 40 43.005 66.8629 43.005 100C43.005 133.137 69.8679 160 103.005 160C136.142 160 163.005 133.137 163.005 100C163.005 66.8629 136.142 40 103.005 40Z"/>
</mask>
<path d="M103.005 0C158.233 0 203.005 44.7715 203.005 100C203.005 155.228 158.233 200 103.005 200C47.7765 200 3.00497 155.228 3.00497 100C3.00497 44.7715 47.7765 0 103.005 0ZM103.005 40C69.8679 40 43.005 66.8629 43.005 100C43.005 133.137 69.8679 160 103.005 160C136.142 160 163.005 133.137 163.005 100C163.005 66.8629 136.142 40 103.005 40Z" fill="black"/>
<path d="M103.005 0V1C157.681 1 202.005 45.3238 202.005 100H203.005H204.005C204.005 44.2192 158.786 -1 103.005 -1V0ZM203.005 100H202.005C202.005 154.676 157.681 199 103.005 199V200V201C158.786 201 204.005 155.781 204.005 100H203.005ZM103.005 200V199C48.3288 199 4.00497 154.676 4.00497 100H3.00497H2.00497C2.00497 155.781 47.2242 201 103.005 201V200ZM3.00497 100H4.00497C4.00497 45.3238 48.3288 1 103.005 1V0V-1C47.2242 -1 2.00497 44.2192 2.00497 100H3.00497ZM103.005 40V39C69.3156 39 42.005 66.3106 42.005 100H43.005H44.005C44.005 67.4152 70.4202 41 103.005 41V40ZM43.005 100H42.005C42.005 133.689 69.3156 161 103.005 161V160V159C70.4202 159 44.005 132.585 44.005 100H43.005ZM103.005 160V161C136.694 161 164.005 133.689 164.005 100H163.005H162.005C162.005 132.585 135.59 159 103.005 159V160ZM163.005 100H164.005C164.005 66.3106 136.694 39 103.005 39V40V41C135.59 41 162.005 67.4152 162.005 100H163.005Z" fill="black" mask="url(#logo-wordmark-symbol-ring-mask)"/>
<path d="M186.005 200C152.385 270.667 51.524 270.667 20.005 200" stroke="black" stroke-width="40" stroke-linecap="round"/>
</g>
<g id="wordmark" transform="translate(82 10)">
<path d="M31.5 22C33.8526 22 36 23.9441 36 26.5C36 29.0559 33.8526 31 31.5 31H26.5C17.912 31 11 37.9971 11 46.5V66.5C11 69.0559 8.85256 71 6.5 71C3.99543 71 2 69.0046 2 66.5V46.5C2 33.0012 12.8896 22 26.5 22H31.5ZM126.453 22C140.063 22 150.953 33.0012 150.953 46.5V66.5C150.953 69.0046 148.958 71 146.453 71C144.101 71 141.953 69.0559 141.953 66.5V64.6084C141.634 65.4422 141.072 66.1872 140.315 66.7275L140.284 66.75L140.252 66.7705C136.152 69.4676 131.475 71 126.453 71C112.949 71 101.953 60.0046 101.953 46.5C101.953 32.9954 112.949 22 126.453 22ZM265.722 22C268.226 22 270.322 24.0952 270.322 26.5996C270.322 27.2841 270.112 27.9918 269.811 28.5947L269.789 28.6357L249.289 67.3359C248.022 69.7282 245.719 70.9999 243.122 71C240.725 71 238.382 69.8245 237.077 67.5586L236.954 67.3359L216.454 28.6357L216.433 28.5947C216.11 27.9501 215.922 27.2455 215.922 26.5C215.922 24.8091 216.869 23.4128 218.162 22.6045L218.242 22.5537L218.327 22.5107C218.972 22.1884 219.676 22 220.422 22C222.007 22 223.334 22.8323 224.159 24.002L224.318 24.2402L224.355 24.3008L224.39 24.3643L243.122 59.7266L261.854 24.3643C262.62 22.8755 264.22 22.0001 265.722 22ZM341.324 22C343.677 22 345.824 23.9441 345.824 26.5V66.5C345.824 69.0559 343.677 71 341.324 71C338.82 71 336.824 69.0046 336.824 66.5V26.5C336.824 23.9954 338.82 22 341.324 22ZM365.348 22C367.7 22 369.848 23.9441 369.848 26.5V66.5C369.848 69.0559 367.7 71 365.348 71C362.843 71 360.848 69.0046 360.848 66.5V26.5C360.848 23.9954 362.843 22 365.348 22ZM126.453 31C117.958 31 110.953 38.0046 110.953 46.5C110.953 55.088 117.95 62 126.453 62C129.636 62 132.642 61.03 135.218 59.2539C136.078 58.6364 137.036 58.5 137.753 58.5C139.681 58.5 141.307 59.683 141.953 61.3701V46.5C141.953 37.9971 135.041 31 126.453 31ZM341.324 2C344.761 2 347.324 4.72837 347.324 8C347.324 11.2716 344.761 14 341.324 14C338.02 14 335.324 11.3046 335.324 8C335.324 4.69543 338.02 2 341.324 2ZM365.348 2C368.785 2 371.348 4.72837 371.348 8C371.348 11.2716 368.785 14 365.348 14C362.043 14 359.348 11.3046 359.348 8C359.348 4.69543 362.043 2 365.348 2Z" fill="black" stroke="black" stroke-width="4"/>
</g>
</svg>
