<svg width="206" height="260" viewBox="0 0 206 260" fill="none" xmlns="http://www.w3.org/2000/svg">
<mask id="path-1-inside-1_171_7" fill="white">
<path d="M103.005 0C158.233 0 203.005 44.7715 203.005 100C203.005 155.228 158.233 200 103.005 200C47.7765 200 3.00497 155.228 3.00497 100C3.00497 44.7715 47.7765 0 103.005 0ZM103.005 40C69.8679 40 43.005 66.8629 43.005 100C43.005 133.137 69.8679 160 103.005 160C136.142 160 163.005 133.137 163.005 100C163.005 66.8629 136.142 40 103.005 40Z"/>
</mask>
<path d="M103.005 0C158.233 0 203.005 44.7715 203.005 100C203.005 155.228 158.233 200 103.005 200C47.7765 200 3.00497 155.228 3.00497 100C3.00497 44.7715 47.7765 0 103.005 0ZM103.005 40C69.8679 40 43.005 66.8629 43.005 100C43.005 133.137 69.8679 160 103.005 160C136.142 160 163.005 133.137 163.005 100C163.005 66.8629 136.142 40 103.005 40Z" fill="black"/>
<path d="M103.005 0V1C157.681 1 202.005 45.3238 202.005 100H203.005H204.005C204.005 44.2192 158.786 -1 103.005 -1V0ZM203.005 100H202.005C202.005 154.676 157.681 199 103.005 199V200V201C158.786 201 204.005 155.781 204.005 100H203.005ZM103.005 200V199C48.3288 199 4.00497 154.676 4.00497 100H3.00497H2.00497C2.00497 155.781 47.2242 201 103.005 201V200ZM3.00497 100H4.00497C4.00497 45.3238 48.3288 1 103.005 1V0V-1C47.2242 -1 2.00497 44.2192 2.00497 100H3.00497ZM103.005 40V39C69.3156 39 42.005 66.3106 42.005 100H43.005H44.005C44.005 67.4152 70.4202 41 103.005 41V40ZM43.005 100H42.005C42.005 133.689 69.3156 161 103.005 161V160V159C70.4202 159 44.005 132.585 44.005 100H43.005ZM103.005 160V161C136.694 161 164.005 133.689 164.005 100H163.005H162.005C162.005 132.585 135.59 159 103.005 159V160ZM163.005 100H164.005C164.005 66.3106 136.694 39 103.005 39V40V41C135.59 41 162.005 67.4152 162.005 100H163.005Z" fill="black" mask="url(#path-1-inside-1_171_7)"/>
<path d="M186.005 187C152.385 257.667 51.524 257.667 20.005 187" stroke="black" stroke-width="40" stroke-linecap="round"/>
</svg>
